<svg width="506" height="257" viewBox="0 0 506 257" fill="none" xmlns="http://www.w3.org/2000/svg">
<path d="M300.278 136.446C296.266 136.446 292.722 135.621 289.646 133.972C286.614 132.278 284.252 129.938 282.558 126.951C280.864 123.964 280.017 120.576 280.017 116.787V88.3008H291.919V117.656C291.919 119.35 292.276 120.821 292.989 122.069C293.747 123.273 294.75 124.209 295.998 124.878C297.291 125.502 298.717 125.814 300.278 125.814C301.883 125.814 303.287 125.502 304.49 124.878C305.694 124.209 306.653 123.273 307.366 122.069C308.079 120.866 308.436 119.417 308.436 117.723V88.3008H320.472V116.854C320.472 120.643 319.625 124.031 317.931 127.018C316.237 129.96 313.874 132.278 310.843 133.972C307.856 135.621 304.334 136.446 300.278 136.446Z" fill="white"/>
<path d="M345.457 136.446C341.49 136.446 338.035 135.844 335.093 134.641C332.195 133.437 329.543 131.542 327.135 128.957L334.692 121.334C336.341 123.072 338.102 124.41 339.974 125.346C341.846 126.237 343.964 126.683 346.327 126.683C348.333 126.683 349.871 126.349 350.941 125.68C352.055 124.967 352.612 124.009 352.612 122.805C352.612 121.69 352.211 120.777 351.409 120.063C350.606 119.305 349.536 118.659 348.199 118.124C346.906 117.545 345.457 117.01 343.853 116.519C342.292 115.984 340.71 115.36 339.105 114.647C337.545 113.889 336.096 112.975 334.758 111.905C333.466 110.835 332.418 109.498 331.616 107.893C330.813 106.288 330.412 104.305 330.412 101.942C330.412 98.9106 331.125 96.325 332.552 94.1852C334.023 92.0454 336.051 90.396 338.637 89.2369C341.222 88.0779 344.231 87.4984 347.664 87.4984C351.097 87.4984 354.262 88.0779 357.159 89.2369C360.057 90.396 362.442 92.0008 364.314 94.0515L356.691 101.608C355.265 100.181 353.816 99.1112 352.345 98.3979C350.874 97.6846 349.269 97.328 347.53 97.328C345.881 97.328 344.588 97.6178 343.652 98.1973C342.716 98.7768 342.248 99.6015 342.248 100.671C342.248 101.741 342.649 102.611 343.451 103.279C344.254 103.948 345.301 104.55 346.594 105.085C347.932 105.575 349.38 106.088 350.941 106.623C352.545 107.158 354.128 107.782 355.688 108.495C357.249 109.208 358.675 110.122 359.968 111.237C361.305 112.351 362.375 113.755 363.178 115.449C363.98 117.143 364.381 119.194 364.381 121.601C364.381 126.327 362.709 129.982 359.366 132.568C356.067 135.153 351.431 136.446 345.457 136.446Z" fill="white"/>
<path d="M368.768 135.711L387.157 88.3008H398.725L416.913 135.711H404.409L390.701 95.8569H395.047L381.005 135.711H368.768ZM379.935 127.419V117.923H406.081V127.419H379.935Z" fill="white"/>
<path d="M295.597 195.209C291.629 195.209 288.175 194.608 285.232 193.404C282.335 192.2 279.682 190.306 277.275 187.72L284.831 180.097C286.481 181.836 288.241 183.173 290.114 184.109C291.986 185.001 294.104 185.447 296.466 185.447C298.472 185.447 300.01 185.112 301.08 184.444C302.195 183.73 302.752 182.772 302.752 181.568C302.752 180.454 302.351 179.54 301.548 178.827C300.746 178.069 299.676 177.422 298.339 176.887C297.046 176.308 295.597 175.773 293.992 175.283C292.432 174.748 290.849 174.124 289.244 173.41C287.684 172.652 286.235 171.739 284.898 170.669C283.605 169.599 282.558 168.261 281.755 166.657C280.953 165.052 280.552 163.068 280.552 160.705C280.552 157.674 281.265 155.088 282.691 152.948C284.162 150.809 286.191 149.159 288.776 148C291.362 146.841 294.371 146.262 297.804 146.262C301.236 146.262 304.401 146.841 307.299 148C310.197 149.159 312.582 150.764 314.454 152.815L306.831 160.371C305.404 158.944 303.956 157.874 302.484 157.161C301.013 156.448 299.408 156.091 297.67 156.091C296.02 156.091 294.728 156.381 293.792 156.961C292.855 157.54 292.387 158.365 292.387 159.435C292.387 160.505 292.789 161.374 293.591 162.043C294.393 162.711 295.441 163.313 296.734 163.848C298.071 164.338 299.52 164.851 301.08 165.386C302.685 165.921 304.268 166.545 305.828 167.258C307.388 167.972 308.815 168.885 310.107 170C311.445 171.114 312.515 172.519 313.317 174.213C314.12 175.907 314.521 177.957 314.521 180.365C314.521 185.09 312.849 188.745 309.506 191.331C306.207 193.917 301.571 195.209 295.597 195.209Z" fill="white"/>
<path d="M333.121 177.489V168.596H342.482C343.641 168.596 344.689 168.373 345.625 167.927C346.606 167.437 347.386 166.723 347.966 165.787C348.545 164.851 348.835 163.692 348.835 162.31C348.835 160.928 348.545 159.769 347.966 158.833C347.386 157.852 346.606 157.139 345.625 156.693C344.689 156.203 343.641 155.958 342.482 155.958H333.121V147.064H344.555C347.587 147.064 350.328 147.688 352.78 148.936C355.232 150.14 357.171 151.879 358.598 154.152C360.024 156.381 360.737 159.1 360.737 162.31C360.737 165.431 360.024 168.15 358.598 170.468C357.171 172.742 355.232 174.48 352.78 175.684C350.328 176.887 347.587 177.489 344.555 177.489H333.121ZM323.625 194.474V147.064H335.595V194.474H323.625Z" fill="white"/>
<path d="M378.541 175.283V166.723H387.568C389.529 166.723 391.023 166.255 392.048 165.319C393.118 164.338 393.653 163.023 393.653 161.374C393.653 159.769 393.118 158.476 392.048 157.496C391.023 156.47 389.529 155.958 387.568 155.958H378.541V147.064H389.24C392.449 147.064 395.258 147.666 397.665 148.87C400.117 150.073 402.034 151.723 403.416 153.818C404.798 155.913 405.489 158.365 405.489 161.173C405.489 163.982 404.775 166.456 403.349 168.596C401.967 170.691 400.028 172.34 397.531 173.544C395.035 174.703 392.115 175.283 388.772 175.283H378.541ZM369.045 194.474V147.064H381.015V194.474H369.045ZM394.723 194.474L380.948 174.146L391.714 171.538L408.565 194.474H394.723Z" fill="white"/>
<path d="M410.531 194.474L428.92 147.064H440.488L458.676 194.474H446.172L432.464 154.62H436.81L422.768 194.474H410.531ZM421.698 186.182V176.687H447.844V186.182H421.698Z" fill="white"/>
<path d="M474.918 177.489L456.797 147.064H470.505L484.347 171.739H474.718L488.559 147.064H502L483.745 177.489H474.918ZM473.514 194.474V172.608H485.483V194.474H473.514Z" fill="white"/>
<path d="M280.752 253.237V205.827H289.378L307.567 233.31H303.488L321.609 205.827H330.235V253.237H318.399V225.62L320.272 226.155L309.372 242.538H301.615L290.783 226.155L292.655 225.62V253.237H280.752Z" fill="white"/>
<path d="M341.714 253.237V205.827H353.683V253.237H341.714ZM351.209 253.237V243.14H376.887V253.237H351.209ZM351.209 233.979V224.149H374.48V233.979H351.209ZM351.209 215.924V205.827H376.486V215.924H351.209Z" fill="white"/>
<path fill-rule="evenodd" clip-rule="evenodd" d="M249.184 8.05263H8.05263V249.184H249.184V8.05263ZM4 4V253.237H253.237V4H4Z" fill="#C6702E"/>
<path fill-rule="evenodd" clip-rule="evenodd" d="M191.434 140.814V249.184H38.4475V96.1974H191.434V108.379C175.522 131.422 136.771 151.003 117.474 156.712C133.847 156.712 167.504 152.816 191.434 140.814Z" fill="url(#paint0_linear_172_171)"/>
<path fill-rule="evenodd" clip-rule="evenodd" d="M38.4475 96.1974H191.434V109.073H187.382V100.25H42.5001V245.132H187.382V139.156H191.434V249.184H38.4475V96.1974Z" fill="url(#paint1_linear_172_171)"/>
<path d="M191.434 96.1974C99.8449 96.1974 51.2808 143.478 38.4475 167.118V208.151L93.6646 184.342L124.059 154.961C169.449 135.508 187.551 115.11 191.434 106.836V96.1974Z" fill="#C6702E"/>
<path d="M38.4475 249.184H91.6383C124.904 246.82 189.408 231.961 187.382 141.789C180.29 146.686 158 154.251 113.421 157.493C77.9607 183.329 47.0594 187.888 38.4475 191.941V249.184Z" fill="#E5A81C"/>
<path d="M152.934 57.6974C139.257 41.9934 128.281 41.1491 122.54 40.4737C131.489 46.2149 145.955 51.045 157.494 73.4013C166.645 91.1316 179.445 90.4562 186.369 91.1316C160.027 80.4934 166.612 73.4013 152.934 57.6974Z" fill="#C6702E"/>
<path d="M195.487 88.0924C195.487 59.2174 158.844 40.9805 146.349 37.4344C169.145 42.5002 199.539 57.1911 199.539 88.5989C199.539 120.007 147.024 149.051 120.006 155.974C149.388 144.323 195.487 116.967 195.487 88.0924Z" fill="#E3A51D"/>
<path d="M224.869 95.1838C224.869 53.0365 175.73 32.8754 146.349 37.4342C171.171 38.5117 215.75 54.2522 215.75 95.1838C215.75 136.115 149.22 151.414 118.487 156.987C154.961 156.987 224.869 147.868 224.869 95.1838Z" fill="#C6702D"/>
<path fill-rule="evenodd" clip-rule="evenodd" d="M58.165 158.094C54.9642 158.952 53.0647 162.242 53.9223 165.442L55.0551 169.67L53.5358 170.077C51.4019 170.649 50.1356 172.842 50.7073 174.976L50.9968 176.056C51.5686 178.19 53.7619 179.457 55.8958 178.885L57.4151 178.478L58.4465 182.327C58.4523 182.349 58.4583 182.37 58.4644 182.392L44.2222 186.208C42.0883 186.78 40.822 188.973 41.3938 191.107L41.6832 192.188C42.255 194.321 44.4483 195.588 46.5822 195.016L47.8804 194.668L48.7396 197.875C49.5973 201.076 52.8873 202.975 56.0881 202.117L69.9153 198.412L67.6289 216.597L72.5775 235.065C73.2922 237.733 76.0339 239.316 78.7013 238.601L87.1627 236.334C89.8301 235.619 91.413 232.877 90.6983 230.21L81.3567 195.347L81.9738 195.181L92.5166 219.27C92.9849 220.34 94.2663 220.783 95.2952 220.23L98.3747 218.576C99.3939 218.029 99.7374 216.734 99.1235 215.753L85.6309 194.201L104.899 189.039C108.1 188.181 110 184.891 109.142 181.69L107.624 176.023C107.568 175.815 107.502 175.612 107.426 175.415L118.058 172.566C121.259 171.708 123.158 168.418 122.301 165.217L117.776 148.333C116.919 145.132 113.629 143.233 110.428 144.09L58.165 158.094Z" fill="white"/>
<rect x="106.432" y="155.903" width="16.2105" height="8.10527" rx="4" transform="rotate(-15 106.432 155.903)" fill="white"/>
<rect x="90.8519" y="149.336" width="6.25332" height="29.4799" transform="rotate(-15 90.8519 149.336)" fill="#E5A81C"/>
<defs>
<linearGradient id="paint0_linear_172_171" x1="114.941" y1="96.1974" x2="114.941" y2="249.184" gradientUnits="userSpaceOnUse">
<stop stop-color="#E1A827"/>
<stop offset="1" stop-color="#EFC51A"/>
</linearGradient>
<linearGradient id="paint1_linear_172_171" x1="114.941" y1="98.2237" x2="114.941" y2="247.158" gradientUnits="userSpaceOnUse">
<stop offset="0.520833" stop-color="#C7712F"/>
<stop offset="1" stop-color="#E5A71D"/>
</linearGradient>
</defs>
</svg>
