<svg width="20" height="20" viewBox="0 0 20 20" fill="none" xmlns="http://www.w3.org/2000/svg">
<path d="M11.9565 13.8446C11.9565 13.8446 13.4749 12.9754 13.8724 12.7665C14.2688 12.5568 14.6794 12.504 14.9288 12.6562C15.3064 12.8872 18.4774 14.9966 18.7444 15.1834C19.0114 15.3705 19.14 15.9049 18.7729 16.4284C18.4073 16.9519 16.7205 19.0219 16.0058 18.9998C15.2899 18.9766 12.3135 18.9113 6.70092 13.2971C1.08944 7.68477 1.02306 4.70759 1.00019 3.99171C0.977313 3.2762 3.04731 1.58905 3.57081 1.22304C4.09505 0.857409 4.63018 0.995036 4.81618 1.25229C5.02768 1.54517 7.11267 4.7061 7.34217 5.06835C7.49929 5.31585 7.44154 5.72874 7.23192 6.12549C7.02342 6.523 6.15417 8.0414 6.15417 8.0414C6.15417 8.0414 6.76692 9.08654 8.83916 11.1584C10.9118 13.2307 11.9565 13.8446 11.9565 13.8446Z" stroke="white" stroke-width="2" stroke-miterlimit="10"/>
</svg>
